<?xml version="1.0" encoding="UTF-8" standalone="no"?><!-- Generator: Gravit.io --><svg xmlns="http://www.w3.org/2000/svg" xmlns:xlink="http://www.w3.org/1999/xlink" style="isolation:isolate" viewBox="0 0 350 350" width="350pt" height="350pt"><defs><clipPath id="_clipPath_uxkH9OMiPOEk0iiuTB5Qrxkth4a03sVO"><rect width="350" height="350"/></clipPath></defs><g clip-path="url(#_clipPath_uxkH9OMiPOEk0iiuTB5Qrxkth4a03sVO)"><g><path d=" M 76.204 110 L 72.071 122.79 L 74.398 137.258 L 70.004 122.79 C 57.602 125.675 47.268 136.944 47.268 150.168 C 47.268 167.53 46.027 186.906 39 190.217 C 39 190.217 39.356 193.524 41.844 196.418 C 53.415 209.65 76.204 217.091 76.204 217.091 C 76.204 217.091 99.408 210.063 110.569 196.422 C 113.053 193.528 113.409 190.221 113.409 190.221 C 106.381 187.327 105.141 167.535 105.141 150.172 C 105.141 136.948 95.228 125.68 82.405 122.79 L 78.011 137.258 L 80.338 122.79 L 76.204 110 Z  M 55.147 159.217 L 72.459 166.712 C 72.459 166.712 68.714 173.735 62.513 172.913 C 56.312 172.086 55.143 159.217 55.143 159.217 L 55.147 159.217 Z  M 97.262 159.217 C 97.262 159.217 96.096 172.086 89.896 172.913 C 83.695 173.735 79.95 166.712 79.95 166.712 L 97.262 159.217 Z " fill="rgb(55,23,157)"/><text transform="matrix(1,0,0,1,121,177.537)" style="font-family:'Amaranth';font-weight:700;font-size:36px;font-style:normal;fill:#37179d;stroke:none;">DISTROQUE</text><text transform="matrix(1,0,0,1,122,194.062)" style="font-family:'Amaranth';font-weight:400;font-size:10px;font-style:normal;fill:#000000;stroke:none;">Wear the trendiest outfit,to hide your insecurities</text></g></g></svg>